# This file uses centimeters as units for non-parametric coordinates.

mtllib Factory.mtl
g default
v -7.500000 24.999154 7.500000
v 7.500000 24.999154 7.500000
v -7.500000 30.000000 -7.500000
v 7.500000 30.000000 -7.500000
v -7.500000 24.902176 -7.500000
v 7.500000 24.902176 -7.500000
v 7.500000 30.000000 2.481124
v -7.500000 30.000000 2.481124
v 7.500000 34.000018 2.481124
v -7.500000 34.000018 2.481124
v 7.500000 34.000018 -7.500000
v -7.500000 34.000018 -7.500000
v 5.440840 34.000018 1.074716
v -5.440840 34.000018 1.074716
v 5.440840 34.000018 -6.093596
v -5.440840 34.000018 -6.093596
v 5.440840 44.000033 1.074716
v -5.440840 44.000033 1.074716
v 5.440840 44.000033 -6.093596
v -5.440840 44.000033 -6.093596
v 5.440840 36.275386 1.074716
v 5.440840 36.275386 -6.093596
v -5.440840 36.275386 -6.093596
v -5.440840 36.275386 1.074716
v 5.440840 37.685359 1.074716
v -5.440840 37.685359 1.074716
v -5.440840 37.685359 -6.093596
v 5.440840 37.685359 -6.093596
v 5.440840 40.197458 1.074716
v -5.440840 40.197458 1.074716
v -5.440840 40.197458 -6.093596
v 5.440840 40.197458 -6.093596
v 5.440840 41.687493 1.074716
v -5.440840 41.687493 1.074716
v -5.440840 41.687493 -6.093596
v 5.440840 41.687493 -6.093596
v -7.552611 36.275386 2.465846
v 7.552611 36.275386 2.465846
v 7.552611 37.685359 2.465846
v -7.552611 37.685359 2.465846
v 7.552611 36.275386 -7.484726
v 7.552611 37.685359 -7.484726
v -7.552611 36.275386 -7.484726
v -7.552611 37.685359 -7.484726
v 7.552611 40.197458 2.465846
v -7.552611 40.197458 2.465846
v 7.552611 41.687493 2.465846
v -7.552611 41.687493 2.465846
v -7.552611 40.197458 -7.484726
v -7.552611 41.687493 -7.484726
v 7.552611 40.197458 -7.484726
v 7.552611 41.687493 -7.484726
v -7.500000 -0.005010 -7.500000
v 7.500000 -0.005003 -7.500000
v 7.500000 -0.005010 7.500000
v -7.500000 -0.005010 7.500000
v -7.500000 21.902298 -7.500000
v 7.500000 21.902298 -7.500000
v 7.500000 21.987603 7.500000
v -7.500000 21.987603 7.500000
v 7.500000 21.944951 5.798179
v 7.500000 -0.005007 5.798176
v 7.500000 21.923631 2.134794
v 7.500000 -0.005005 2.134793
v 7.500000 21.912965 -5.860844
v 7.500000 -0.005003 -5.860845
v 7.500000 21.918300 -2.282962
v 7.500000 -0.005003 -2.282963
v 7.500000 15.193614 5.798179
v 7.500000 15.182948 2.134793
v 7.500000 20.345750 -2.282962
v 7.500000 20.343087 -5.860844
v 7.500000 18.840290 -2.282962
v 7.500000 18.838964 -5.860845
v 7.500000 13.682890 5.798179
v 7.500000 13.677557 2.134793
v 9.000000 18.838964 -5.860845
v 9.000000 -0.005003 -5.860845
v 9.000000 18.840290 -2.282962
v 9.000000 -0.005003 -2.282963
v 9.000000 13.677557 2.134793
v 9.000000 -0.005005 2.134793
v 9.000000 13.682890 5.798179
v 9.000000 -0.005007 5.798176
vt 0.000000 0.563315
vt 0.286386 0.562389
vt 0.286386 0.611054
vt 0.095821 0.611054
vt 0.000000 0.534566
vt 0.032492 0.534159
vt 0.102435 0.533955
vt 0.186780 0.533905
vt 0.255091 0.533854
vt 0.286386 0.533751
vt 0.286386 0.649239
vt 0.095821 0.649239
vt 0.032492 0.324620
vt 0.032492 0.455288
vt 0.032492 0.469710
vt 0.000000 0.324620
vt 0.102435 0.469607
vt 0.186780 0.324620
vt 0.186780 0.504521
vt 0.186780 0.518893
vt 0.102435 0.455236
vt 0.102435 0.324620
vt 0.255091 0.518867
vt 0.255091 0.504509
vt 0.255091 0.324620
vt 0.286386 0.324620
vt 0.286592 0.237769
vt 0.572978 0.238695
vt 0.477156 0.286434
vt 0.286592 0.286434
vt 0.286592 0.209132
vt 0.572978 0.209946
vt 0.477156 0.324619
vt 0.286592 0.324619
vt 0.286592 0.000000
vt 0.572978 0.000000
vt 0.823448 0.802951
vt 0.823448 0.612971
vt 0.836909 0.612971
vt 0.836909 0.802951
vt 0.823449 0.802951
vt 0.823449 0.612970
vt 0.836909 0.612970
vt 0.836909 0.802951
vt 0.674097 0.749831
vt 0.674097 0.612971
vt 0.695818 0.612971
vt 0.695818 0.749831
vt 0.695818 0.612971
vt 0.695818 0.749831
vt 0.674097 0.749831
vt 0.674097 0.612971
vt 0.601440 0.749831
vt 0.601440 0.612971
vt 0.625421 0.612971
vt 0.625421 0.749831
vt 0.601440 0.749831
vt 0.601440 0.612971
vt 0.625421 0.612971
vt 0.625421 0.749831
vt 0.791156 0.802951
vt 0.791156 0.612971
vt 0.805380 0.612971
vt 0.805380 0.802951
vt 0.791156 0.802951
vt 0.791156 0.612971
vt 0.805380 0.612971
vt 0.805380 0.802951
vt 0.695971 0.613124
vt 0.695971 0.749678
vt 0.673944 0.749678
vt 0.673944 0.613124
vt 0.673944 0.749677
vt 0.673944 0.613125
vt 0.695972 0.613125
vt 0.695972 0.749677
vt 0.972489 0.286386
vt 0.972489 0.466274
vt 0.904179 0.466287
vt 0.904179 0.286386
vt 0.671383 0.325700
vt 0.671383 0.456317
vt 0.601440 0.456368
vt 0.601440 0.325700
vt 0.904179 0.286386
vt 0.904179 0.000000
vt 1.000000 0.000000
vt 1.000000 0.286386
vt 0.286592 0.639644
vt 0.286592 0.353258
vt 0.317887 0.353258
vt 0.386198 0.353258
vt 0.470543 0.353258
vt 0.540486 0.353258
vt 0.572978 0.353258
vt 0.572978 0.639644
vt 0.317887 0.324619
vt 0.386198 0.324619
vt 0.470543 0.324619
vt 0.540486 0.324619
vt 0.766937 0.494143
vt 0.766937 0.286386
vt 0.903798 0.286386
vt 0.903798 0.494143
vt 0.573185 0.572771
vt 0.573185 0.286386
vt 0.600037 0.325700
vt 0.600037 0.533457
vt 0.763749 0.286386
vt 0.736898 0.325700
vt 0.763749 0.572771
vt 0.736898 0.533457
vt 0.600240 0.326009
vt 0.600240 0.533147
vt 0.573760 0.573347
vt 0.573760 0.285810
vt 0.736693 0.533147
vt 0.763174 0.573347
vt 0.736693 0.326009
vt 0.763174 0.285810
vt 0.600240 0.326010
vt 0.600240 0.533148
vt 0.573760 0.573347
vt 0.573760 0.285810
vt 0.736693 0.533148
vt 0.763174 0.573347
vt 0.736693 0.326010
vt 0.763174 0.285810
vt 0.736693 0.533148
vt 0.736693 0.326010
vt 0.763174 0.285811
vt 0.763174 0.573347
vt 0.600240 0.326010
vt 0.573760 0.285811
vt 0.600240 0.533148
vt 0.573760 0.573347
vt 0.600240 0.326010
vt 0.600240 0.533147
vt 0.573760 0.573347
vt 0.573760 0.285810
vt 0.736693 0.533147
vt 0.763174 0.573347
vt 0.736693 0.326010
vt 0.763174 0.285810
vt 0.815375 0.262576
vt 0.815375 0.194265
vt 0.844014 0.194265
vt 0.844014 0.262576
vt 0.815612 0.262813
vt 0.815612 0.194028
vt 0.843777 0.194028
vt 0.843777 0.262813
vt 0.000000 0.038186
vt 0.286386 0.038186
vt 0.286386 0.086850
vt 0.000000 0.086850
vt 0.000000 0.000000
vt 0.286386 0.000000
vt 0.286386 0.115487
vt 0.000000 0.115487
vt 0.286386 0.324620
vt 0.000000 0.324620
vt 0.189716 0.935625
vt 0.189716 0.649239
vt 0.227901 0.649239
vt 0.227901 0.935625
vt 0.524746 0.928040
vt 0.524746 0.639644
vt 0.538207 0.639644
vt 0.538207 0.928040
vt 0.538207 0.639645
vt 0.538207 0.928040
vt 0.524746 0.928040
vt 0.524746 0.639645
vt 0.251802 0.649239
vt 0.251802 0.856996
vt 0.230081 0.856996
vt 0.230081 0.649239
vt 0.251802 0.649239
vt 0.251802 0.856996
vt 0.230081 0.856996
vt 0.230081 0.649239
vt 0.972799 0.494143
vt 0.972799 0.286386
vt 0.996780 0.286386
vt 0.996780 0.494143
vt 0.972800 0.494143
vt 0.972800 0.286385
vt 0.996780 0.286385
vt 0.996780 0.494143
vt 0.492454 0.928040
vt 0.492454 0.639644
vt 0.506678 0.639644
vt 0.506678 0.928040
vt 0.506678 0.639644
vt 0.506678 0.928040
vt 0.492454 0.928040
vt 0.492454 0.639644
vt 0.251963 0.649400
vt 0.251963 0.856835
vt 0.229920 0.856835
vt 0.229920 0.649400
vt 0.251962 0.649399
vt 0.251962 0.856836
vt 0.229921 0.856836
vt 0.229921 0.649399
vt 0.783130 0.000000
vt 0.783130 0.286386
vt 0.573185 0.286386
vt 0.573185 0.000000
vt 0.811880 0.000000
vt 0.811880 0.286386
vt 0.847667 0.194248
vt 0.847667 0.014359
vt 0.876306 0.014359
vt 0.876306 0.194248
vt 0.847667 0.000000
vt 0.815375 0.179901
vt 0.815375 0.000000
vt 0.844014 0.000000
vt 0.844014 0.179901
vt 0.815375 0.194273
vt 0.036329 0.469599
vt 0.036329 0.338983
vt 0.064967 0.338983
vt 0.064967 0.469599
vt 0.036329 0.324612
vt 0.189716 0.455288
vt 0.189716 0.324620
vt 0.218355 0.324620
vt 0.218355 0.455288
vt 0.189716 0.469710
vn 0.000000 0.708378 0.705833
vn 0.000000 0.708378 0.705833
vn 0.000000 0.708378 0.705833
vn 0.000000 0.708378 0.705833
vn 0.000000 0.000000 -1.000000
vn 0.000000 0.000000 -1.000000
vn 0.000000 0.000000 -1.000000
vn 0.000000 0.000000 -1.000000
vn 0.000000 -1.000000 -0.000000
vn 0.000000 -1.000000 -0.000000
vn 0.000000 -1.000000 -0.000000
vn 0.000000 -1.000000 -0.000000
vn 0.000000 -1.000000 -0.000000
vn 0.000000 -1.000000 -0.000000
vn 0.000000 -1.000000 -0.000000
vn 0.000000 -1.000000 -0.000000
vn 1.000000 0.000000 0.000000
vn 1.000000 0.000000 0.000000
vn 1.000000 0.000000 0.000000
vn 1.000000 0.000000 0.000000
vn -1.000000 0.000000 0.000000
vn -1.000000 0.000000 0.000000
vn -1.000000 0.000000 0.000000
vn -1.000000 0.000000 0.000000
vn 0.000000 1.000000 0.000000
vn 0.000000 1.000000 0.000000
vn 0.000000 1.000000 0.000000
vn 0.000000 1.000000 0.000000
vn 0.000000 0.000000 1.000000
vn 0.000000 0.000000 1.000000
vn 0.000000 0.000000 1.000000
vn 0.000000 0.000000 1.000000
vn 1.000000 0.000000 0.000000
vn 1.000000 0.000000 0.000000
vn 0.000000 0.000000 -1.000000
vn 0.000000 0.000000 -1.000000
vn -1.000000 0.000000 0.000000
vn -1.000000 0.000000 0.000000
vn 0.000000 1.000000 -0.000000
vn 0.000000 1.000000 -0.000000
vn 0.000000 1.000000 -0.000000
vn 0.000000 1.000000 -0.000000
vn 0.000000 1.000000 0.000000
vn 0.000000 1.000000 0.000000
vn 0.000000 1.000000 0.000000
vn 0.000000 1.000000 0.000000
vn 0.000000 0.000000 1.000000
vn 0.000000 0.000000 1.000000
vn 0.000000 0.000000 1.000000
vn 0.000000 0.000000 1.000000
vn 1.000000 0.000000 0.000000
vn 1.000000 0.000000 0.000000
vn 1.000000 0.000000 0.000000
vn 1.000000 0.000000 0.000000
vn 0.000000 0.000000 -1.000000
vn 0.000000 0.000000 -1.000000
vn 0.000000 0.000000 -1.000000
vn 0.000000 0.000000 -1.000000
vn -1.000000 0.000000 0.000000
vn -1.000000 0.000000 0.000000
vn -1.000000 0.000000 0.000000
vn -1.000000 0.000000 0.000000
vn 1.000000 0.000000 0.000000
vn 1.000000 0.000000 0.000000
vn 1.000000 0.000000 0.000000
vn 1.000000 0.000000 0.000000
vn 0.000000 0.000000 -1.000000
vn 0.000000 0.000000 -1.000000
vn 0.000000 0.000000 -1.000000
vn 0.000000 0.000000 -1.000000
vn -1.000000 0.000000 0.000000
vn -1.000000 0.000000 0.000000
vn -1.000000 0.000000 0.000000
vn -1.000000 0.000000 0.000000
vn 0.000000 0.000000 1.000000
vn 0.000000 0.000000 1.000000
vn 0.000000 0.000000 1.000000
vn 0.000000 0.000000 1.000000
vn 0.000000 0.000000 1.000000
vn 0.000000 0.000000 1.000000
vn 0.000000 0.000000 1.000000
vn 0.000000 0.000000 1.000000
vn -1.000000 0.000000 0.000000
vn -1.000000 0.000000 0.000000
vn -1.000000 0.000000 0.000000
vn -1.000000 0.000000 0.000000
vn 0.000000 0.000000 -1.000000
vn 0.000000 0.000000 -1.000000
vn 0.000000 0.000000 -1.000000
vn 0.000000 0.000000 -1.000000
vn 1.000000 0.000000 0.000000
vn 1.000000 0.000000 0.000000
vn 1.000000 0.000000 0.000000
vn 1.000000 0.000000 0.000000
vn 0.000000 0.000000 1.000000
vn 0.000000 0.000000 1.000000
vn 0.000000 0.000000 1.000000
vn 0.000000 0.000000 1.000000
vn -1.000000 0.000000 0.000000
vn -1.000000 0.000000 0.000000
vn -1.000000 0.000000 0.000000
vn -1.000000 0.000000 0.000000
vn 0.000000 0.000000 -1.000000
vn 0.000000 0.000000 -1.000000
vn 0.000000 0.000000 -1.000000
vn 0.000000 0.000000 -1.000000
vn 1.000000 0.000000 0.000000
vn 1.000000 0.000000 0.000000
vn 1.000000 0.000000 0.000000
vn 1.000000 0.000000 0.000000
vn 0.000000 0.000000 1.000000
vn 0.000000 0.000000 1.000000
vn 0.000000 0.000000 1.000000
vn 0.000000 0.000000 1.000000
vn -1.000000 0.000000 0.000000
vn -1.000000 0.000000 0.000000
vn -1.000000 0.000000 0.000000
vn -1.000000 0.000000 0.000000
vn 0.000000 0.000000 -1.000000
vn 0.000000 0.000000 -1.000000
vn 0.000000 0.000000 -1.000000
vn 0.000000 0.000000 -1.000000
vn 1.000000 0.000000 0.000000
vn 1.000000 0.000000 0.000000
vn 1.000000 0.000000 0.000000
vn 1.000000 0.000000 0.000000
vn 0.000000 -1.000000 -0.000001
vn 0.000000 -1.000000 -0.000001
vn 0.000000 -1.000000 -0.000000
vn 0.000000 -1.000000 -0.000000
vn 0.000000 1.000000 -0.000001
vn 0.000000 1.000000 -0.000001
vn 0.000000 1.000000 -0.000000
vn 0.000000 1.000000 -0.000000
vn 0.000000 -1.000000 0.000001
vn 0.000000 -1.000000 0.000000
vn 0.000000 1.000000 0.000001
vn 0.000000 1.000000 0.000000
vn 0.000000 -1.000000 0.000001
vn 0.000000 -1.000000 0.000000
vn 0.000000 1.000000 0.000001
vn 0.000000 1.000000 0.000000
vn 0.000000 -1.000000 0.000001
vn 0.000000 -1.000000 0.000001
vn 0.000000 -1.000000 0.000000
vn 0.000000 -1.000000 0.000000
vn 0.000000 1.000000 0.000000
vn 0.000000 1.000000 0.000000
vn 0.000000 1.000000 0.000000
vn 0.000000 1.000000 0.000000
vn 0.000000 -1.000000 -0.000001
vn 0.000000 -1.000000 -0.000000
vn 0.000000 1.000000 -0.000000
vn 0.000000 1.000000 -0.000000
vn 0.000000 -1.000000 -0.000001
vn 0.000000 -1.000000 -0.000000
vn 0.000000 1.000000 -0.000000
vn 0.000000 1.000000 -0.000000
vn 0.000000 0.000000 -1.000000
vn 0.000000 0.000000 -1.000000
vn 0.000000 0.000000 -1.000000
vn 0.000000 0.000000 -1.000000
vn 1.000000 0.000000 0.000000
vn 1.000000 0.000000 0.000000
vn 1.000000 0.000000 0.000000
vn 1.000000 0.000000 0.000000
vn 1.000000 0.000000 0.000000
vn 1.000000 0.000000 0.000000
vn 0.000000 0.000000 1.000000
vn 0.000000 0.000000 1.000000
vn 0.000000 0.000000 1.000000
vn 0.000000 0.000000 1.000000
vn -1.000000 0.000000 0.000000
vn -1.000000 0.000000 0.000000
vn -1.000000 0.000000 0.000000
vn -1.000000 0.000000 0.000000
vn 1.000000 0.000000 0.000000
vn 1.000000 0.000000 0.000000
vn 1.000000 -0.000000 0.000000
vn 1.000000 -0.000000 0.000000
vn 0.000000 0.000000 1.000000
vn 0.000000 0.000000 1.000000
vn 1.000000 0.000000 0.000000
vn 1.000000 0.000000 0.000000
vn 1.000000 0.000000 0.000000
vn 1.000000 0.000000 0.000000
vn 1.000000 -0.000000 0.000000
vn 1.000000 -0.000000 0.000000
vn 1.000000 -0.000000 0.000000
vn 1.000000 -0.000000 0.000000
vn 1.000000 -0.000000 0.000000
vn 1.000000 -0.000000 0.000000
vn 1.000000 0.000000 0.000000
vn 1.000000 0.000000 0.000000
vn 1.000000 0.000000 0.000000
vn 1.000000 0.000000 0.000000
vn 1.000000 0.000000 0.000000
vn 1.000000 0.000000 0.000000
vn 1.000000 0.000000 0.000000
vn 1.000000 0.000000 0.000000
vn 0.000000 0.000000 -1.000000
vn 0.000000 0.000000 -1.000000
vn 0.000000 0.000000 -1.000000
vn 0.000000 0.000000 -1.000000
vn 0.000000 -0.000000 1.000000
vn 0.000000 -0.000000 1.000000
vn 0.000000 -0.000000 1.000000
vn 0.000000 -0.000000 1.000000
vn 0.000000 -1.000000 0.000000
vn 0.000000 -1.000000 0.000000
vn 0.000000 0.000000 -1.000000
vn 0.000000 0.000000 -1.000000
vn 0.000000 0.000000 -1.000000
vn 0.000000 0.000000 -1.000000
vn 0.000000 -0.000000 1.000000
vn 0.000000 -0.000000 1.000000
vn 0.000000 -0.000000 1.000000
vn 0.000000 -0.000000 1.000000
vn 0.000000 -1.000000 -0.000001
vn 0.000000 -1.000000 -0.000001
vn 0.708233 0.705978 -0.000394
vn 0.708233 0.705978 -0.000394
vn 0.708233 0.705978 -0.000394
vn 0.708233 0.705978 -0.000394
vn 0.708997 0.705209 -0.001540
vn 0.708997 0.705209 -0.001540
vn 0.708997 0.705209 -0.001540
vn 0.708997 0.705209 -0.001540
vn 0.000000 0.000000 -1.000000
vn 0.000000 0.000000 -1.000000
vn 0.000000 0.000000 -1.000000
vn 0.000000 0.000000 -1.000000
vn 0.000000 0.000000 -1.000000
vn 0.000000 0.000000 -1.000000
vn 0.000000 0.000000 1.000000
vn 0.000000 0.000000 1.000000
vn 0.000000 0.000000 1.000000
vn 0.000000 0.000000 1.000000
vn 0.000000 0.000000 1.000000
vn 0.000000 0.000000 1.000000
s off
g pCube2
usemtl initialShadingGroup
f 1/85/1 2/86/2 7/87/3 8/88/4
s 1
f 3/153/5 4/154/6 6/155/7 5/156/8
s 2
f 53/89/9 54/90/10 66/91/11 68/92/12 64/93/13 62/94/14 55/95/15 56/96/16
s 3
f 2/1/17 6/2/18 4/3/19 7/4/20
s 4
f 5/27/21 1/28/22 8/29/23 3/30/24
s off
f 18/101/25 17/102/26 19/103/27 20/104/28
f 8/163/29 7/164/30 9/165/31 10/166/32
s 3
f 7/4/20 4/3/19 11/11/33 9/12/34
s 1
f 4/154/6 3/153/5 12/157/35 11/158/36
s 4
f 3/30/24 8/29/23 10/33/37 12/34/38
s 5
f 10/105/39 9/106/40 13/107/41 14/108/42
f 9/106/40 11/109/43 15/110/44 13/107/41
f 11/109/43 12/111/45 16/112/46 15/110/44
f 12/111/45 10/105/39 14/108/42 16/112/46
s off
f 37/167/47 38/168/48 39/169/49 40/170/50
f 38/37/51 41/38/52 42/39/53 39/40/54
f 41/171/55 43/172/56 44/173/57 42/174/58
f 43/41/59 37/42/60 40/43/61 44/44/62
f 13/45/63 15/46/64 22/47/65 21/48/66
f 15/175/67 16/176/68 23/177/69 22/178/70
f 16/49/71 14/50/72 24/51/73 23/52/74
f 14/179/75 13/180/76 21/181/77 24/182/78
f 26/183/79 25/184/80 29/185/81 30/186/82
f 27/53/83 26/54/84 30/55/85 31/56/86
f 28/187/87 27/188/88 31/189/89 32/190/90
f 25/57/91 28/58/92 32/59/93 29/60/94
f 46/191/95 45/192/96 47/193/97 48/194/98
f 49/61/99 46/62/100 48/63/101 50/64/102
f 51/195/103 49/196/104 50/197/105 52/198/106
f 45/65/107 51/66/108 52/67/109 47/68/110
f 34/199/111 33/200/112 17/201/113 18/202/114
f 35/69/115 34/70/116 18/71/117 20/72/118
f 36/203/119 35/204/120 20/205/121 19/206/122
f 33/73/123 36/74/124 19/75/125 17/76/126
s 6
f 24/113/127 21/114/128 38/115/129 37/116/130
s 7
f 25/121/131 26/122/132 40/123/133 39/124/134
s 6
f 21/114/128 22/117/135 41/118/136 38/115/129
s 7
f 28/127/137 25/121/131 39/124/134 42/128/138
s 6
f 22/117/135 23/119/139 43/120/140 41/118/136
s 7
f 27/125/141 28/127/137 42/128/138 44/126/142
s 6
f 23/119/139 24/113/127 37/116/130 43/120/140
s 7
f 26/122/132 27/125/141 44/126/142 40/123/133
s 8
f 30/129/143 29/130/144 45/131/145 46/132/146
s 9
f 33/137/147 34/138/148 48/139/149 47/140/150
s 8
f 31/135/151 30/129/143 46/132/146 49/136/152
s 9
f 34/138/148 35/141/153 50/142/154 48/139/149
s 8
f 32/133/155 31/135/151 49/136/152 51/134/156
s 9
f 35/141/153 36/143/157 52/144/158 50/142/154
s 8
f 29/130/144 32/133/155 51/134/156 45/131/145
s 9
f 36/143/157 33/137/147 47/140/150 52/144/158
s 1
f 57/160/159 58/159/160 54/161/161 53/162/162
s 3
f 58/10/163 65/9/164 72/23/165 74/24/166 66/25/167 54/26/168
s 10
f 59/207/169 60/208/170 56/209/171 55/210/172
s 4
f 60/32/173 57/31/174 53/35/175 56/36/176
s 1
f 5/156/8 6/155/7 58/159/160 57/160/159
s 3
f 6/2/18 2/1/17 59/5/177 61/6/178 63/7/179 67/8/180 65/9/164 58/10/163
s 10
f 2/211/181 1/212/182 60/208/170 59/207/169
s 4
f 1/28/22 5/27/21 57/31/174 60/32/173
s 3
f 62/13/183 75/14/184 69/15/185 61/6/178 59/5/177 55/16/186
f 69/15/185 70/17/187 63/7/179 61/6/178
f 71/20/188 72/23/165 65/9/164 67/8/180
f 68/18/189 73/19/190 71/20/188 67/8/180 63/7/179 70/17/187 76/21/191 64/22/192
s off
f 78/77/193 77/78/194 79/79/195 80/80/196
f 82/81/197 81/82/198 83/83/199 84/84/200
f 66/213/201 74/214/202 77/215/203 78/216/204
f 73/218/205 68/219/206 80/220/207 79/221/208
s 2
f 68/92/12 66/91/11 78/97/209 80/98/210
s off
f 64/223/211 76/224/212 81/225/213 82/226/214
f 75/228/215 62/229/216 84/230/217 83/231/218
s 2
f 62/94/14 64/93/13 82/99/219 84/100/220
s off
f 72/145/221 71/146/222 79/147/223 77/148/224
f 70/149/225 69/150/226 83/151/227 81/152/228
f 76/224/229 70/227/230 81/225/231
f 74/214/232 72/217/233 77/215/234
f 73/218/235 79/221/236 71/222/237
f 75/228/238 83/231/239 69/232/240
